HIERARCHY
ROOT hips
{
	OFFSET 0.000000 104.274902 0.000000
	CHANNELS 6 Xposition Yposition Zposition Xrotation Yrotation Zrotation
	JOINT spine
	{
		OFFSET 0.000000 10.181549 0.131524
		CHANNELS 6 Xposition Yposition Zposition Xrotation Yrotation Zrotation
		JOINT chest
		{
			OFFSET 0.000000 9.893990 -1.470706
			CHANNELS 3 Xrotation Yrotation Zrotation
			JOINT upperChest
			{
				OFFSET 0.000000 9.220787 -1.370637
				CHANNELS 3 Xrotation Yrotation Zrotation
				JOINT neck
				{
					OFFSET 0.000000 16.740372 -2.049022
					CHANNELS 6 Xposition Yposition Zposition Xrotation Yrotation Zrotation
					JOINT head
					{
						OFFSET 0.000000 9.617859 1.684976
						CHANNELS 6 Xposition Yposition Zposition Xrotation Yrotation Zrotation
						JOINT headEnd
						{
							OFFSET 0.000000 22.037384 7.501072
							CHANNELS 6 Xposition Yposition Zposition Xrotation Yrotation Zrotation
							End Site
							{
								OFFSET 0.000000 23.106567 -2.828246
							}
						}
					}
				}
				JOINT rightShoulder
				{
					OFFSET -4.570000 11.014877 -2.160840
					CHANNELS 6 Xposition Yposition Zposition Xrotation Yrotation Zrotation
					JOINT rightUpperArm
					{
						OFFSET -10.592867 -0.524796 -2.232105
						CHANNELS 3 Xrotation Yrotation Zrotation
						JOINT rightLowerArm
						{
							OFFSET -27.841497 0.000000 -0.000002
							CHANNELS 3 Xrotation Yrotation Zrotation
							JOINT rightHand
							{
								OFFSET -28.328812 0.000000 -0.000001
								CHANNELS 3 Xrotation Yrotation Zrotation
								JOINT rightThumbProximal
								{
									OFFSET -2.464798 -1.573990 2.681911
									CHANNELS 6 Xposition Yposition Zposition Xrotation Yrotation Zrotation
									JOINT rightThumbIntermediate
									{
										OFFSET -3.244781 -1.873383 1.873376
										CHANNELS 3 Xrotation Yrotation Zrotation
										JOINT rightThumbDistal
										{
											OFFSET -2.646263 -1.527817 1.527818
											CHANNELS 6 Xposition Yposition Zposition Xrotation Yrotation Zrotation
											JOINT rightHandThumb4
											{
												OFFSET -1.994591 -1.151581 1.151575
												CHANNELS 6 Xposition Yposition Zposition Xrotation Yrotation Zrotation
												End Site
												{
													OFFSET -1.860176 -1.142715 1.365483
												}
											}
										}
									}
								}
								JOINT rightIndexProximal
								{
									OFFSET -9.108299 -0.517883 2.259803
									CHANNELS 6 Xposition Yposition Zposition Xrotation Yrotation Zrotation
									JOINT rightIndexIntermediate
									{
										OFFSET -3.699997 0.000000 0.000000
										CHANNELS 3 Xrotation Yrotation Zrotation
										JOINT rightIndexDistal
										{
											OFFSET -2.850006 0.000000 0.000000
											CHANNELS 3 Xrotation Yrotation Zrotation
											JOINT rightHandIndex4
											{
												OFFSET -2.772194 0.000000 0.000000
												CHANNELS 3 Xrotation Yrotation Zrotation
												End Site
												{
													OFFSET -2.772202 0.000000 -0.000484
												}
											}
										}
									}
								}
								JOINT rightMiddleProximal
								{
									OFFSET -9.532501 0.000000 -0.000000
									CHANNELS 6 Xposition Yposition Zposition Xrotation Yrotation Zrotation
									JOINT rightMiddleIntermediate
									{
										OFFSET -3.699997 0.000000 0.000000
										CHANNELS 3 Xrotation Yrotation Zrotation
										JOINT rightMiddleDistal
										{
											OFFSET -2.949997 0.000000 0.000000
											CHANNELS 3 Xrotation Yrotation Zrotation
											JOINT rightHandMiddle4
											{
												OFFSET -2.946594 0.000000 0.000000
												CHANNELS 3 Xrotation Yrotation Zrotation
												End Site
												{
													OFFSET -2.946602 0.000000 -0.000982
												}
											}
										}
									}
								}
								JOINT rightRingProximal
								{
									OFFSET -9.103600 -0.043106 -1.865100
									CHANNELS 6 Xposition Yposition Zposition Xrotation Yrotation Zrotation
									JOINT rightRingIntermediate
									{
										OFFSET -3.379303 0.000000 0.000000
										CHANNELS 3 Xrotation Yrotation Zrotation
										JOINT rightRingDistal
										{
											OFFSET -2.889694 0.000000 0.000000
											CHANNELS 3 Xrotation Yrotation Zrotation
											JOINT rightHandRing4
											{
												OFFSET -2.638802 0.000000 0.000000
												CHANNELS 3 Xrotation Yrotation Zrotation
												End Site
												{
													OFFSET -2.638802 0.000000 0.004218
												}
											}
										}
									}
								}
								JOINT rightLittleProximal
								{
									OFFSET -8.076698 -0.486725 -3.806299
									CHANNELS 6 Xposition Yposition Zposition Xrotation Yrotation Zrotation
									JOINT rightLittleIntermediate
									{
										OFFSET -3.600006 0.000000 0.000000
										CHANNELS 3 Xrotation Yrotation Zrotation
										JOINT rightLittleDistal
										{
											OFFSET -2.099998 0.000000 0.000000
											CHANNELS 3 Xrotation Yrotation Zrotation
											JOINT rightHandPinky4
											{
												OFFSET -2.115791 0.000000 0.000000
												CHANNELS 3 Xrotation Yrotation Zrotation
												End Site
												{
													OFFSET -2.115799 0.000000 0.000174
												}
											}
										}
									}
								}
							}
						}
					}
				}
				JOINT leftShoulder
				{
					OFFSET 4.570400 11.014679 -2.160816
					CHANNELS 6 Xposition Yposition Zposition Xrotation Yrotation Zrotation
					JOINT leftUpperArm
					{
						OFFSET 10.592373 -0.524597 -2.232116
						CHANNELS 3 Xrotation Yrotation Zrotation
						JOINT leftLowerArm
						{
							OFFSET 27.841488 0.000000 0.000001
							CHANNELS 3 Xrotation Yrotation Zrotation
							JOINT leftHand
							{
								OFFSET 28.328808 0.000000 -0.000000
								CHANNELS 3 Xrotation Yrotation Zrotation
								JOINT leftThumbProximal
								{
									OFFSET 2.466103 -1.576202 2.681698
									CHANNELS 6 Xposition Yposition Zposition Xrotation Yrotation Zrotation
									JOINT leftThumbIntermediate
									{
										OFFSET 3.243317 -1.872528 1.872530
										CHANNELS 3 Xrotation Yrotation Zrotation
										JOINT leftThumbDistal
										{
											OFFSET 2.647881 -1.528763 1.528754
											CHANNELS 6 Xposition Yposition Zposition Xrotation Yrotation Zrotation
											JOINT leftHandThumb4
											{
												OFFSET 1.998924 -1.154083 1.154080
												CHANNELS 6 Xposition Yposition Zposition Xrotation Yrotation Zrotation
												End Site
												{
													OFFSET 1.884041 -1.149155 1.337651
												}
											}
										}
									}
								}
								JOINT leftIndexProximal
								{
									OFFSET 9.109299 -0.518005 2.259900
									CHANNELS 6 Xposition Yposition Zposition Xrotation Yrotation Zrotation
									JOINT leftIndexIntermediate
									{
										OFFSET 3.699997 0.000000 0.000000
										CHANNELS 3 Xrotation Yrotation Zrotation
										JOINT leftIndexDistal
										{
											OFFSET 2.850006 0.000000 0.000000
											CHANNELS 3 Xrotation Yrotation Zrotation
											JOINT leftHandIndex4
											{
												OFFSET 2.774895 0.000000 0.000000
												CHANNELS 3 Xrotation Yrotation Zrotation
												End Site
												{
													OFFSET 2.774902 0.000000 -0.000072
												}
											}
										}
									}
								}
								JOINT leftMiddleProximal
								{
									OFFSET 9.533401 0.000000 0.000000
									CHANNELS 6 Xposition Yposition Zposition Xrotation Yrotation Zrotation
									JOINT leftMiddleIntermediate
									{
										OFFSET 3.699997 0.000000 0.000000
										CHANNELS 3 Xrotation Yrotation Zrotation
										JOINT leftMiddleDistal
										{
											OFFSET 2.949997 0.000000 0.000000
											CHANNELS 3 Xrotation Yrotation Zrotation
											JOINT leftHandMiddle4
											{
												OFFSET 2.952896 0.000000 0.000000
												CHANNELS 3 Xrotation Yrotation Zrotation
												End Site
												{
													OFFSET 2.952904 0.000000 0.000165
												}
											}
										}
									}
								}
								JOINT leftRingProximal
								{
									OFFSET 9.104500 -0.042999 -1.865101
									CHANNELS 6 Xposition Yposition Zposition Xrotation Yrotation Zrotation
									JOINT leftRingIntermediate
									{
										OFFSET 3.149994 0.000000 0.000000
										CHANNELS 3 Xrotation Yrotation Zrotation
										JOINT leftRingDistal
										{
											OFFSET 2.950005 0.000000 0.000000
											CHANNELS 3 Xrotation Yrotation Zrotation
											JOINT leftHandRing4
											{
												OFFSET 2.644302 0.000000 0.000000
												CHANNELS 3 Xrotation Yrotation Zrotation
												End Site
												{
													OFFSET 2.644302 0.000000 0.000083
												}
											}
										}
									}
								}
								JOINT leftLittleProximal
								{
									OFFSET 8.077805 -0.486893 -3.806302
									CHANNELS 6 Xposition Yposition Zposition Xrotation Yrotation Zrotation
									JOINT leftLittleIntermediate
									{
										OFFSET 3.600006 0.000000 0.000000
										CHANNELS 3 Xrotation Yrotation Zrotation
										JOINT leftLittleDistal
										{
											OFFSET 2.099998 0.000000 0.000000
											CHANNELS 3 Xrotation Yrotation Zrotation
											JOINT leftHandPinky4
											{
												OFFSET 2.125496 0.000000 0.000000
												CHANNELS 3 Xrotation Yrotation Zrotation
												End Site
												{
													OFFSET 2.125504 0.000000 -0.001254
												}
											}
										}
									}
								}
							}
						}
					}
				}
			}
		}
	}
	JOINT rightUpperLeg
	{
		OFFSET -8.207800 -6.751701 -1.599544
		CHANNELS 6 Xposition Yposition Zposition Xrotation Yrotation Zrotation
		JOINT rightLowerLeg
		{
			OFFSET 0.000004 -44.370152 0.345934
			CHANNELS 3 Xrotation Yrotation Zrotation
			JOINT rightFoot
			{
				OFFSET 0.000004 -44.423664 -3.043535
				CHANNELS 3 Xrotation Yrotation Zrotation
				JOINT rightToes
				{
					OFFSET 0.000001 -8.728691 10.710592
					CHANNELS 3 Xrotation Yrotation Zrotation
					JOINT rightToesEnd
					{
						OFFSET 0.000000 -0.000665 9.278101
						CHANNELS 3 Xrotation Yrotation Zrotation
						End Site
						{
							OFFSET 0.000000 -0.000665 9.278103
						}
					}
				}
			}
		}
	}
	JOINT leftUpperLeg
	{
		OFFSET 8.207800 -6.751701 -1.599544
		CHANNELS 6 Xposition Yposition Zposition Xrotation Yrotation Zrotation
		JOINT leftLowerLeg
		{
			OFFSET 0.000004 -44.370037 0.346940
			CHANNELS 3 Xrotation Yrotation Zrotation
			JOINT leftFoot
			{
				OFFSET 0.000004 -44.423611 -3.044388
				CHANNELS 3 Xrotation Yrotation Zrotation
				JOINT leftToes
				{
					OFFSET 0.000001 -8.728690 10.710592
					CHANNELS 3 Xrotation Yrotation Zrotation
					JOINT leftToesEnd
					{
						OFFSET 0.000000 -0.000680 9.278101
						CHANNELS 3 Xrotation Yrotation Zrotation
						End Site
						{
							OFFSET 0.000000 -0.000680 9.278101
						}
					}
				}
			}
		}
	}
}
MOTION
Frames: 4
Frame Time: 0.033333
-1.120158 93.795380 1.298295 1.997939 -25.350959 9.762334 0.000003 10.181550 0.131523 4.344739 -6.788204 0.722196 -2.941200 -1.780877 2.816193 -2.949648 -2.130929 0.399832 0.000001 16.740347 -2.049019 9.338913 3.259378 -2.594223 -0.000003 9.617846 1.684978 19.960770 42.822602 -17.767501 0.000004 22.037369 7.501069 -0.000002 0.000002 -0.000001 -4.569999 11.014890 -2.160836 5.065927 7.843059 0.478619 18.068919 42.559076 30.785988 -0.000038 49.282981 0.000060 53.964064 37.076524 -60.336867 -2.464803 -1.573990 2.681909 5.959040 3.392520 -4.852419 21.039570 -22.177091 11.314777 -2.646256 -1.527819 1.527819 1.881842 -20.859265 -20.542714 -1.994599 -1.151580 1.151579 0.000000 -0.000007 0.000003 -9.108312 -0.517879 2.259801 2.223634 -6.394504 73.277835 5.106294 -4.635488 95.540454 1.378423 -3.309233 45.217871 -0.000000 0.000001 0.000001 -9.532495 0.000001 -0.000000 6.087909 -7.373995 76.940653 5.126299 -4.633519 95.787666 1.377248 -3.308052 45.197674 0.000000 0.000001 0.000000 -9.103612 -0.043095 -1.865100 10.059139 -7.866257 80.811533 5.196766 -4.625854 96.660823 1.373321 -3.304166 45.129594 -0.000000 0.000001 -0.000002 -8.076687 -0.486725 -3.806305 7.924119 -20.361776 83.609275 5.124793 -4.633675 95.769170 1.378392 -3.309191 45.217556 0.000002 -0.000001 0.000002 4.570401 11.014684 -2.160811 6.108128 -3.138978 -1.277644 33.413343 -31.041273 -29.708529 -0.000008 -66.515859 -0.000013 26.712491 -30.183050 32.342677 2.466084 -1.576214 2.681701 8.853683 -1.801043 6.971551 21.844758 22.162449 -12.905789 2.647878 -1.528773 1.528758 2.042367 18.836376 20.742566 1.998921 -1.154097 1.154081 -0.000000 0.000000 0.000001 9.109282 -0.518008 2.259895 4.768813 8.094946 -81.814103 7.034895 5.730663 -101.692549 1.973298 4.385013 -48.441266 0.000002 -0.000001 -0.000001 9.533406 0.000000 0.000000 8.033703 8.413366 -84.860299 7.042905 5.729002 -101.772892 2.005944 4.413666 -48.867015 -0.000001 0.000000 0.000001 9.104477 -0.043008 -1.865100 11.518356 8.412504 -87.965282 7.092499 5.718498 -102.269966 2.050167 4.451771 -49.439129 0.000002 -0.000001 -0.000002 8.077803 -0.486902 -3.806304 9.525710 20.374868 -89.488469 7.087185 5.719643 -102.216766 2.052900 4.454095 -49.474301 0.000001 0.000001 -0.000000 -8.207801 -6.751711 -1.599538 -22.349798 -5.465380 -10.293124 53.776603 -13.904833 -4.155916 -27.608868 -17.077373 7.578297 -5.897675 -0.000003 0.000000 -0.000000 -0.000003 -0.000000 8.207802 -6.751691 -1.599545 -39.546368 12.127020 3.085934 53.539066 11.395269 -3.518029 0.303671 17.286476 -7.228593 -16.062885 0.000000 0.000000 0.000000 -0.000001 0.000000 
-1.134325 92.039833 1.492034 1.703264 -30.922514 12.033660 -0.000001 10.181551 0.131525 4.716453 -4.130952 -0.474854 -3.056896 -1.042972 2.668118 -3.067376 -1.401272 0.151039 -0.000001 16.740351 -2.049022 10.298281 3.259969 -3.052810 -0.000003 9.617844 1.684975 22.163667 42.572603 -18.394379 -0.000005 22.037354 7.501075 -0.000001 0.000002 0.000001 -4.570001 11.014876 -2.160840 4.124446 10.815637 -0.593372 23.872498 48.089091 24.170241 -0.000019 46.988396 0.000052 52.326848 36.435036 -61.015910 -2.464792 -1.574002 2.681904 6.172274 3.370075 -4.882698 21.125485 -22.247115 11.525814 -2.646261 -1.527830 1.527817 2.043584 -21.211919 -20.488536 -1.994594 -1.151580 1.151579 -0.000001 -0.000005 0.000001 -9.108312 -0.517895 2.259806 2.833171 -6.582481 73.865716 5.164022 -4.629568 96.255206 1.397962 -3.328475 45.555422 0.000000 0.000004 0.000001 -9.532505 0.000006 -0.000001 6.203625 -7.373259 77.539429 5.181982 -4.627557 96.477426 1.396786 -3.327313 45.535338 -0.000000 0.000001 0.000001 -9.103608 -0.043103 -1.865101 9.851794 -7.778868 81.317125 5.248874 -4.619499 97.307321 1.392802 -3.323411 45.466612 0.000001 0.000002 0.000000 -8.076711 -0.486730 -3.806301 7.693988 -20.401828 83.986321 5.172839 -4.628596 96.364489 1.397952 -3.328453 45.555258 0.000000 0.000000 0.000003 4.570399 11.014676 -2.160815 7.017305 -0.513677 -2.196023 29.881265 -30.988346 -33.830378 0.000011 -59.793962 0.000014 28.034307 -30.675855 31.264610 2.466096 -1.576208 2.681697 8.107328 -1.651082 6.255958 21.337683 21.328493 -12.410011 2.647882 -1.528747 1.528752 1.518282 17.148013 20.079592 1.998913 -1.154094 1.154074 0.000001 0.000000 0.000002 9.109294 -0.517983 2.259902 4.608055 8.053803 -78.580896 6.819736 5.770791 -99.545547 1.877129 4.298084 -47.171021 -0.000001 -0.000001 -0.000001 9.533408 -0.000005 0.000000 7.712779 8.510534 -81.945065 6.832999 5.768559 -99.677465 1.890366 4.310265 -47.347363 -0.000000 0.000000 0.000001 9.104494 -0.043010 -1.865105 11.152522 8.653632 -85.338234 6.895569 5.757601 -100.300536 1.906918 4.325424 -47.567292 0.000004 -0.000001 -0.000000 8.077790 -0.486895 -3.806298 9.197874 21.009662 -87.370673 6.838486 5.767620 -99.732182 1.913986 4.331861 -47.660961 0.000004 -0.000000 -0.000000 -8.207802 -6.751711 -1.599539 -24.621304 -2.815569 -12.069034 58.374403 -15.083732 -6.155309 -29.714263 -13.293476 9.817413 -5.893678 0.000038 0.000008 -0.000000 -0.000002 -0.000000 8.207798 -6.751703 -1.599550 -39.866312 11.677437 0.957776 57.840911 13.085504 -1.245323 -1.548185 16.189078 -10.862610 -16.856939 -0.000001 0.000002 -0.000000 0.000000 0.000000 
-1.129606 90.302940 1.991325 1.631095 -36.550811 14.666832 0.000003 10.181565 0.131523 5.552235 -0.700927 -2.072726 -3.133494 -0.088728 2.482815 -3.142315 -0.453033 -0.117007 0.000001 16.740374 -2.049023 10.732070 3.281702 -3.312157 -0.000003 9.617825 1.684976 24.057429 42.135475 -18.958445 -0.000001 22.037369 7.501077 -0.000000 0.000001 0.000001 -4.569999 11.014885 -2.160841 3.130727 14.475228 -0.747632 33.422008 51.720784 12.909416 -0.000027 45.566535 0.000065 46.952855 37.079758 -60.684086 -2.464790 -1.573981 2.681907 6.322131 3.347611 -4.896957 21.185927 -22.294132 11.675718 -2.646272 -1.527799 1.527817 2.160698 -21.458173 -20.447647 -1.994599 -1.151577 1.151576 -0.000001 -0.000000 0.000006 -9.108297 -0.517843 2.259801 3.273035 -6.710349 74.282405 5.204306 -4.624987 96.754459 1.411682 -3.341855 45.791238 0.000002 -0.000001 0.000002 -9.532523 0.000018 -0.000002 6.287623 -7.372041 77.963386 5.220839 -4.623000 96.959316 1.410516 -3.340702 45.771249 -0.000000 -0.000001 -0.000000 -9.103604 -0.043090 -1.865101 9.703724 -7.719359 81.675730 5.285265 -4.614695 97.759412 1.406482 -3.336793 45.702080 0.000001 0.000003 -0.000000 -8.076700 -0.486700 -3.806294 7.530903 -20.441486 84.254536 5.206424 -4.624731 96.780236 1.411673 -3.341833 45.791173 -0.000001 0.000000 -0.000001 4.570404 11.014709 -2.160816 8.182426 2.852335 -3.423199 25.229797 -28.677068 -38.863449 0.000011 -53.613775 0.000017 29.920600 -31.706247 27.883856 2.466106 -1.576221 2.681696 7.566776 -1.529732 5.736185 20.980255 20.718457 -12.055133 2.647872 -1.528747 1.528759 1.129311 15.922016 19.604315 1.998913 -1.154082 1.154070 -0.000000 0.000001 0.000001 9.109300 -0.517999 2.259901 4.486965 8.022839 -76.231345 6.648424 5.796856 -97.845684 1.810274 4.235315 -46.272452 -0.000002 0.000000 0.000001 9.533419 -0.000012 -0.000004 7.475957 8.570532 -79.824940 6.665544 5.794480 -98.015352 1.811886 4.236845 -46.294274 0.000001 -0.000001 0.000002 9.104494 -0.043003 -1.865105 10.882429 8.816305 -83.426567 6.738390 5.783820 -98.737529 1.811708 4.236665 -46.291870 -0.000001 -0.000001 -0.000001 8.077797 -0.486886 -3.806305 8.933465 21.470158 -85.825978 6.648038 5.796913 -97.841831 1.819901 4.244492 -46.402789 -0.000000 0.000000 0.000000 -8.207800 -6.751699 -1.599543 -26.416453 0.753010 -14.056728 62.590194 -16.183107 -7.546866 -31.918304 -9.906070 11.990227 -6.597689 0.000002 0.000000 0.000000 0.000000 0.000000 8.207801 -6.751692 -1.599554 -39.131117 12.247333 -1.344465 61.262357 12.665311 1.537834 -3.768681 16.135028 -14.972410 -16.849954 0.000002 0.000001 0.000000 0.000000 0.000000 
-1.082264 88.539413 2.712051 1.725438 -42.347368 17.553666 0.000002 10.181561 0.131525 7.000993 3.459300 -4.218330 -3.148269 1.078908 2.235497 -3.149780 0.713362 -0.421005 -0.000002 16.740360 -2.049024 10.436360 3.339431 -3.404899 0.000001 9.617846 1.684972 25.566921 41.489813 -19.558868 -0.000000 22.037384 7.501073 -0.000000 0.000000 -0.000000 -4.570004 11.014867 -2.160839 2.316722 18.677154 0.134491 45.453522 52.573250 -3.002146 -0.000023 44.784652 0.000055 36.247694 39.633300 -58.959149 -2.464802 -1.573963 2.681905 6.380945 3.333635 -4.895168 21.208036 -22.306170 11.737491 -2.646272 -1.527795 1.527815 2.208201 -21.550084 -20.422624 -1.994578 -1.151591 1.151571 0.000003 -0.000004 -0.000002 -9.108324 -0.517897 2.259802 3.469209 -6.765062 74.435463 5.219117 -4.623206 96.938197 1.416740 -3.346754 45.877855 -0.000000 -0.000001 0.000002 -9.532520 0.000006 0.000000 6.322627 -7.372063 78.122386 5.235084 -4.621243 97.136205 1.415571 -3.345621 45.857945 0.000000 -0.000003 0.000001 -9.103591 -0.043116 -1.865099 9.634795 -7.695769 81.808741 5.298643 -4.612857 97.925891 1.411522 -3.341710 45.788605 0.000002 0.000000 0.000000 -8.076709 -0.486728 -3.806296 7.455163 -20.469066 84.352625 5.218694 -4.623259 96.932802 1.416733 -3.346740 45.877858 0.000000 0.000000 0.000001 4.570399 11.014701 -2.160814 9.664555 7.103857 -4.967862 19.460227 -23.147291 -44.334150 -0.000021 -48.240294 -0.000034 32.408387 -33.611153 21.618693 2.466086 -1.576203 2.681695 7.309421 -1.467590 5.490018 20.813557 20.428162 -11.885818 2.647889 -1.528741 1.528754 0.949054 15.337931 19.383474 1.998921 -1.154089 1.154075 0.000003 0.000001 0.000001 9.109276 -0.517995 2.259897 4.422329 8.006101 -75.115292 6.556100 5.808768 -96.932535 1.777906 4.204201 -45.832639 -0.000003 0.000003 -0.000002 9.533407 0.000008 -0.000006 7.361360 8.595683 -78.816469 6.575851 5.806338 -97.127831 1.775798 4.202154 -45.803805 0.000001 0.000002 -0.000001 9.104496 -0.042979 -1.865108 10.755902 8.890302 -82.517435 6.655379 5.795902 -97.914792 1.769898 4.196412 -45.723199 -0.000001 0.000001 -0.000000 8.077784 -0.486894 -3.806308 8.803065 21.686687 -85.090756 6.554300 5.808975 -96.914893 1.776763 4.203100 -45.817186 0.000003 -0.000000 0.000001 -8.207800 -6.751704 -1.599545 -27.736109 5.099429 -16.032273 66.612861 -16.623352 -8.578365 -34.200222 -7.344787 13.879381 -8.304754 0.000002 0.000010 0.000000 -0.000000 0.000000 8.207802 -6.751690 -1.599546 -37.243304 13.494722 -4.043057 63.806241 11.221836 4.235290 -6.254930 17.183369 -19.032457 -16.539095 -0.000004 -0.000002 -0.000000 -0.000000 0.000000 
